# xmcd
#
# Track frame offsets:
#	150
#	51889
#	82015
#	118084
#	149777
#	189266
#	226980
#	268496
#
# Disc length: 3973 seconds
#
# Revision: 1
# Processed by: cddbd v1.5.2PL0 Copyright (c) Steve Scherf et al.
# Submitted via: audiograbber 1.83.01
#
DISCID=790f8308
DTITLE=Grateful Dead - 87-04-11 UIC Pavilion, Chicago IL
DYEAR=1900
DGENRE=
TTITLE0=Terrapin Station
TTITLE1=Drums
TTITLE2=Space
TTITLE3=Truckin
TTITLE4=Wharf Rat
TTITLE5=Throwing Stones
TTITLE6=Not Fade Away
TTITLE7=Black Muddy River
EXTD=
EXTT0=
EXTT1=
EXTT2=
EXTT3=
EXTT4=
EXTT5=
EXTT6=
EXTT7=
PLAYORDER=
